<?xml version="1.0" encoding="utf-8"?>
<!-- Generator: Adobe Illustrator 16.0.0, SVG Export Plug-In . SVG Version: 6.00 Build 0)  -->
<!DOCTYPE svg PUBLIC "-//W3C//DTD SVG 1.1//EN" "http://www.w3.org/Graphics/SVG/1.1/DTD/svg11.dtd">
<svg version="1.1" id="Capa_1" xmlns="http://www.w3.org/2000/svg" xmlns:xlink="http://www.w3.org/1999/xlink" x="0px" y="0px"
	 width="265px" height="249px" viewBox="0 0 265 249" enable-background="new 0 0 265 249" xml:space="preserve">
<g>
	<defs>
		<rect id="SVGID_1_" x="-80.5" y="-16.965" width="425.197" height="283.465"/>
	</defs>
	<clipPath id="SVGID_2_">
		<use xlink:href="#SVGID_1_"  overflow="visible"/>
	</clipPath>
	<path clip-path="url(#SVGID_2_)" fill="#FFFFFF" d="M197.97,226.465c0.855,0,1.449-0.573,1.449-1.355
		c0-0.798-0.594-1.37-1.449-1.37c-0.84,0-1.463,0.572-1.463,1.37C196.507,225.892,197.13,226.465,197.97,226.465 M186.246,228.243
		c-1.42,0-2.363-0.699-2.363-1.974c0-1.202,1.016-1.902,2.363-1.902c1.334,0,2.378,0.7,2.378,1.902
		C188.624,227.544,187.682,228.243,186.246,228.243z M186.261,220.058c1.306,0,2.16,0.631,2.16,1.807
		c0,1.104-0.942,1.734-2.16,1.734c-1.247,0-2.175-0.644-2.175-1.734C184.086,220.688,184.942,220.058,186.261,220.058z
		 M186.261,229.025c1.929,0,3.289-0.95,3.289-2.672c0-1.427-1.028-2.169-1.983-2.378c0.955-0.236,1.78-0.895,1.78-2.14
		c0-1.554-1.216-2.559-3.086-2.559c-1.885,0-3.1,1.005-3.1,2.559c0,1.245,0.838,1.903,1.781,2.14
		c-0.957,0.209-1.984,0.951-1.984,2.378C182.958,228.075,184.304,229.025,186.261,229.025z M175.956,228.871v-9.454h-0.824
		l-3.116,1.258l0.247,0.714l2.797-1.119v8.602H175.956z M159.728,226.593c0,1.328,0.97,2.418,2.883,2.418
		c2.262,0,3.404-1.984,3.404-5.146c0-2.729-1.012-4.603-3.317-4.603c-2.16,0-3.201,1.453-3.201,3.132
		c0,1.765,1.099,2.993,3.071,2.993c1.218,0,2.188-0.796,2.521-1.271c0,2.461-0.826,4.111-2.478,4.111
		c-1.219-0.001-1.973-0.644-1.973-1.636H159.728z M165.032,223.165c-0.393,0.742-1.291,1.441-2.334,1.441
		c-1.494,0-2.291-0.84-2.291-2.212c0-1.398,0.783-2.351,2.291-2.351C164.35,220.044,165.032,221.57,165.032,223.165
		 M152.552,228.871v-9.454h-0.824l-3.114,1.258l0.246,0.714l2.797-1.119v8.602H152.552z M129.815,228.103v-3.722h4.275v-0.768
		h-4.275v-3.43h4.753v-0.767h-5.665v9.454h5.722v-0.769H129.815z M115.584,228.103v-7.919h1.667c2.9,0,3.697,1.148,3.697,3.96
		c0,2.854-0.797,3.959-3.697,3.959H115.584z M114.673,228.871h2.607c3.407,0,4.608-1.397,4.608-4.728
		c0-3.357-1.215-4.727-4.608-4.727h-2.607V228.871z M107.629,220.66c-0.42-0.728-1.434-1.383-2.956-1.383
		c-2.059,0-3.072,1.271-3.072,2.684c0,1.273,0.868,1.987,2.216,2.379l1.349,0.378c0.957,0.266,1.682,0.686,1.682,1.636
		c0,1.106-0.754,1.861-2.306,1.861c-1.681,0-2.217-0.699-2.536-1.44l-0.752,0.42c0.362,0.782,1.056,1.816,3.288,1.816
		c2.103,0,3.246-1.146,3.246-2.699c0-1.398-1.013-2.027-2.332-2.405l-1.334-0.378c-1.029-0.294-1.58-0.686-1.58-1.596
		c0-1.034,0.696-1.86,2.131-1.86c1.058,0,1.798,0.378,2.232,1.063L107.629,220.66z M90.224,228.103v-3.722h4.275v-0.768h-4.275
		v-3.43h4.753v-0.767h-5.664v9.454h5.722v-0.769H90.224z M75.993,228.103v-7.919h1.667c2.899,0,3.697,1.148,3.697,3.96
		c0,2.854-0.798,3.959-3.697,3.959H75.993z M75.082,228.871h2.607c3.407,0,4.608-1.397,4.608-4.728c0-3.357-1.216-4.727-4.608-4.727
		h-2.607V228.871z M66.241,226.465c0.854,0,1.448-0.573,1.448-1.355c0-0.798-0.594-1.37-1.448-1.37c-0.84,0-1.463,0.572-1.463,1.37
		C64.778,225.892,65.401,226.465,66.241,226.465"/>
	<path clip-path="url(#SVGID_2_)" fill="#FFFFFF" d="M225.767,199.707c0-1.886,1.62-2.548,4.792-3.011l2.908-0.43v3.936
		c-0.859,0.894-2.577,2.052-4.791,2.052C226.561,202.254,225.767,201.229,225.767,199.707 M226.561,190.776
		c0.793-0.562,1.883-0.827,3.502-0.827c1.354,0,2.71,0.299,3.404,0.827v4.002l-3.04,0.397c-4.032,0.529-6.708,1.621-6.708,4.597
		c0,2.613,1.421,4.201,4.626,4.201c2.545,0,4.328-1.356,5.221-2.382c0.066,1.423,0.992,2.216,2.313,2.216
		c0.463,0,1.123-0.033,1.751-0.165v-1.753c-0.396,0.066-0.858,0.166-1.288,0.166c-0.562,0-0.959-0.331-0.959-1.224v-6.913
		c0-3.771-0.099-5.723-5.32-5.723c-3.701,0-5.452,1.257-5.452,3.109c0,0.86,0.165,1.621,0.396,2.282h1.555V190.776z
		 M217.308,184.427c0.793,0,1.553-0.463,1.553-1.522c0-1.091-0.76-1.554-1.553-1.554c-0.893,0-1.554,0.463-1.554,1.554
		C215.754,183.964,216.415,184.427,217.308,184.427 M213.177,203.609h8.492v-1.753h-3.238v-13.329h-5.254v1.753h3.37v11.576h-3.37
		V203.609z M199.826,190.28h2.313v11.378l-2.313,0.397v1.554h7.931v-1.753h-3.733v-8.302c0.826-1.918,2.577-3.241,4.13-3.373
		l2.38,0.661l0.264-2.414c-0.562-0.133-1.52-0.232-2.478-0.232c-1.917,0-3.669,1.753-4.363,3.572v-3.241h-4.13V190.28z
		 M185.221,199.707c0-1.886,1.618-2.548,4.791-3.011l2.907-0.43v3.936c-0.858,0.894-2.577,2.052-4.791,2.052
		C186.014,202.254,185.221,201.229,185.221,199.707 M186.014,190.776c0.793-0.562,1.883-0.827,3.503-0.827
		c1.354,0,2.709,0.299,3.402,0.827v4.002l-3.04,0.397c-4.031,0.529-6.708,1.621-6.708,4.597c0,2.613,1.421,4.201,4.626,4.201
		c2.545,0,4.329-1.356,5.222-2.382c0.066,1.423,0.992,2.216,2.313,2.216c0.462,0,1.123-0.033,1.751-0.165v-1.753
		c-0.396,0.066-0.858,0.166-1.289,0.166c-0.561,0-0.958-0.331-0.958-1.224v-6.913c0-3.771-0.099-5.723-5.319-5.723
		c-3.702,0-5.453,1.257-5.453,3.109c0,0.86,0.165,1.621,0.396,2.282h1.555V190.776z M176.43,184.427
		c0.794,0,1.554-0.463,1.554-1.522c0-1.091-0.76-1.554-1.554-1.554c-0.893,0-1.554,0.463-1.554,1.554
		C174.876,183.964,175.537,184.427,176.43,184.427 M172.299,203.609h8.493v-1.753h-3.238v-13.329h-5.255v1.753h3.37v11.576h-3.37
		V203.609z M163.179,190.28h2.875l-4.429,11.643l-4.428-11.643h2.842v-1.753h-6.907v1.753h2.017l5.188,13.329h2.513l5.154-13.329
		h2.082v-1.753h-6.906V190.28z M144.805,200.038c-2.148,0-2.941-1.092-2.941-4.003c0-2.811,0.76-3.902,2.875-3.902
		c2.181,0,2.942,1.092,2.942,4.002C147.681,198.88,146.952,200.038,144.805,200.038 M144.838,188.196
		c-5.452,0-7.436,3.176-7.436,7.938c0,4.563,2.082,7.839,7.303,7.839c5.453,0,7.437-3.208,7.437-7.938
		C152.142,191.405,150.093,188.196,144.838,188.196 M123.259,192.231h2.114v7.376l-2.114,0.661v3.341h9.583v-3.671h-3.207v-5.688
		c0.595-0.894,1.686-1.423,3.074-1.522l2.776,0.464l0.33-4.861c-0.694-0.101-1.652-0.134-2.28-0.134c-2.049,0-3.833,2.35-4.23,3.639
		v-3.308h-6.047V192.231z M108.289,192.231h2.115v7.376l-2.115,0.661v3.341h9.583v-3.671h-3.205v-5.688
		c0.595-0.894,1.685-1.423,3.073-1.522l2.776,0.464l0.331-4.861c-0.694-0.101-1.653-0.134-2.281-0.134
		c-2.049,0-3.833,2.35-4.23,3.639v-3.308h-6.047V192.231z M96.293,194.349c0.099-1.422,0.793-2.613,2.545-2.613
		c1.157,0,2.379,0.629,2.379,2.216c0,0.066,0,0.199-0.033,0.397H96.293z M99.367,200.202c-1.95,0-3.041-0.991-3.107-2.679h8.791
		c0.165-0.628,0.297-1.818,0.297-2.712c0-3.273-1.751-6.615-6.51-6.615c-4.693,0-7.138,3.639-7.138,7.872
		c0,4.598,2.313,7.905,7.634,7.905c1.817,0,4.064-0.563,5.783-1.555l-1.388-3.341C102.375,199.806,100.887,200.202,99.367,200.202
		 M74.45,203.609h10.839v-3.671h-4.064v-4.796h6.477v-3.771h-6.477v-6.449h5.452v3.638h4.197v-7.309H74.45v3.671h2.214v15.016H74.45
		V203.609z M56.143,201.823v-18.785h3.436c6.61,0,8.493,2.909,8.493,9.326c0,6.549-1.817,9.459-8.493,9.459H56.143z M54.193,201.823
		h-2.545v1.786h7.799c8.526,0,10.674-4.101,10.674-11.179c0-7.177-2.148-11.179-10.674-11.179h-7.799v1.786h2.545V201.823z
		 M33.506,194.447l4.296-11.212L42,194.447H33.506z M41.438,203.609h7.469v-1.786h-2.082l-7.172-18.785h1.95v-1.786h-7.7v1.786
		h2.016l-7.237,18.785h-2.115v1.786h7.436v-1.786h-3.206l2.148-5.557h9.584l2.081,5.557h-3.172V203.609z"/>
	<path clip-path="url(#SVGID_2_)" fill="#FFFFFF" d="M146.137,154.086c-0.014,0.213,0.229,0.339,0.398,0.209
		c1.274-0.979,2.583-2.276,3.913-3.35l0.105-0.144c-0.344-1.717,0-17.06,0-17.06l5.151-0.114l0.114-3.865h-5.266
		c0,0,0.229-5.838,0.112-7.124c-0.061-0.696,8.931,2.959,8.931,2.959l0.918-3.418c-4.582-2.553-13.167-4.866-13.167-4.866
		C147.863,125.935,146.425,149.566,146.137,154.086 M113.953,129.763h-5.3c-0.473,0-0.844-0.396-0.801-0.868
		c0.126-1.337,0.354-3.883,0.417-5.19c0.017-0.341,0.244-0.623,0.569-0.721l4.055-1.229c0.522-0.158,1.04,0.231,1.037,0.777
		C113.918,124.968,113.953,128.988,113.953,129.763 M119.987,156.522c-4.186-22.765-2.428-39.209-2.428-39.209l-13.138,4.12
		c0,0,0.855,0.939,0.887,1.317c0.254,2.986-1.726,14.149-2.077,15.977c-0.04,0.206,0,0.399,0.113,0.575
		c0.648,0.986,2.884,4.358,2.909,3.918c0.12-2.13,0.841-7.358,1.067-8.83c0.061-0.394,0.397-0.677,0.794-0.677h5.236
		c0.431,0,0.785,0.344,0.8,0.776c0.299,8.681,1.502,16.635,1.799,18.484c0.03,0.19,0.128,0.362,0.276,0.489
		C117.49,154.555,118.75,155.572,119.987,156.522 M127.745,119.117c2.242-0.058,4.559-0.096,6.295-0.096
		c1.465,0,2.513,0.028,2.742,0.094c0.773,0.221,1.832,0.527,1.883,2.931c0.029,1.211,0.027,8.211,0.025,14.271h-0.006l0.004,3.315
		h0.002c0.002,6.059,0.004,13.059-0.025,14.27v0.001c-0.039,1.866-0.685,2.904-1.817,2.922c-0.833,0.015-7.54,0.047-9.103,0.009
		l-0.093-0.102v-37.518L127.745,119.117z M122.741,115.942l-0.654,0.08l0.545,0.37c0.014,0.01,1.493,1.031,1.493,2.141
		l-0.001,38.882c0,0.41-0.895,1.52-1.531,2.174l-0.348,0.356l0.496,0.06c0.068,0.01,4.93,0.575,9.666,0.575
		c1.834,0,3.649-0.087,5.16-0.32c4.606-0.716,4.568-5.342,4.568-5.385c0,0,0-8.34-0.026-16.902
		c0.024-8.479,0.026-16.744,0.026-16.901c0-0.133-0.007-4.677-4.567-5.386C132.161,114.847,122.836,115.932,122.741,115.942
		 M152.632,53.705l2.686-3.468c-0.357-0.021-0.639-0.081-0.872-0.132c-0.311-0.067-0.402-0.089-0.778,0.015
		c-0.288,0.079-0.518,0.155-0.709,0.216c-0.445,0.145-0.923,0.299-1.45,0.242c0.537,0.652,1.063,1.522,1.107,2.697l0.013,0.326
		L152.632,53.705z M124.271,75.395l-29.933,38.663v0.453c0.329-0.211,0.662-0.42,0.996-0.623c4.626-2.804,9.949-5.029,15.829-6.618
		l2.542-3.282c0.173-0.647,0.36-1.548,0.062-2.136c-1.403-2.776-0.981-3.952-0.843-4.339c0.219-0.605,0.658-1.077,1.234-1.329
		c0.482-0.213,0.879-0.283,1.228-0.348c0.486-0.087,0.947-0.171,1.973-0.788c1.812-1.091,3.686-3.003,4.224-3.767
		c0.153-0.215,0.353-0.609,0.606-1.087c0.914-1.73,2.296-4.344,4.178-5.49c1.243-0.759,2.324-1.014,3.155-1.148l1.26-1.627
		c-0.816-1.121-2.108-2.669-3.015-3.28C126.724,77.946,125.33,76.658,124.271,75.395 M162.438,41.04l7.464-9.642V27.98h-8.924
		l-7.093,9.161c1.308-0.534,2.454-0.74,3.46-0.59c1.696,0.254,3.519,1.963,4.271,2.982C161.914,39.935,162.215,40.426,162.438,41.04
		 M139.116,71.164l5.002-6.462c0.006-0.184,0.001-0.354-0.033-0.482c-0.293-1.082-0.7-3.045-0.34-4.564
		c-0.393,0.267-0.856,0.48-1.394,0.602c-0.998,0.225-1.708,0.263-2.28,0.294c-0.578,0.032-0.896,0.048-1.358,0.233
		c-1.253,0.502-3.081,2.068-3.159,2.919c-0.044,0.463-0.145,0.929-0.25,1.393c-0.311,1.364-0.395,1.731,0.717,2.372
		C137.394,68.261,138.403,69.668,139.116,71.164 M145.549,63.825c0.349,1.281-0.419,3.504-0.587,4.187
		c-0.17,0.685-1.538,2.908-1.36,4.175c0.174,1.268-2.048,4.548-2.732,5.405c-0.685,0.854-1.975,0.255-1.909-1.112
		c0.065-1.37-1.033-6.157-3.699-7.697c-2.667-1.54-1.385-3.42-1.218-5.217c0.165-1.797,2.822-3.676,4.107-4.191
		c1.289-0.514,1.976-0.17,3.864-0.598c1.888-0.428,2.224-2.565,2.224-2.565c1.462,0.426,1.383,2.565,1.042,3.591
		C144.938,60.829,145.203,62.54,145.549,63.825 M172.516,25.32l-0.001,94.192l-0.021,0.114c-1.507-1.237-3.168-2.41-4.985-3.513
		c-9.494-5.762-22.07-8.932-35.41-8.932c-4.902,0-9.699,0.436-14.281,1.264c0.223-0.161-0.455-0.48-0.902-1.35
		c-0.532-1.027-0.12-1.767,0.506-2.623c0.628-0.855,1.25-3.249,1.932-4.675c0.682-1.423,2.737-3.763,6.626-5.301
		c3.888-1.542,6.168-4.619,6.796-5.245c0.629-0.628,1.256-0.572,1.374,0.285c0.118,0.854,0.005,1.139-0.506,2.621
		c-0.512,1.483,1.502,4.562,1.678,6.044c0.177,1.484-0.618,4.163-1.645,5.416c-1.025,1.255-0.05,2.337,1.268,2.681
		c1.317,0.341,2.635,0.226,3.496,0.675c0.857,0.45,5.437,1.186,5.574,0.603c0.103-0.433,0.09-0.686-0.769-1.166
		c-0.75-0.418-1.695-0.449-2.485-0.78c-0.933-0.391-1.971-1.715-2.446-2.24c-0.383-0.42-0.414-6.88,0.374-8.153
		c1.565-2.525,1.061-9.693,1.343-10.319c0.284-0.629,0.682-1.996,0.795-2.51c0.113-0.512,0.111-1.312,1.137-2.279
		c1.028-0.97,1.712-1.996,2.626-3.079c0.913-1.084,2.449-4.048,3.416-5.589c0.969-1.539,0.908-2.451,0.962-3.931
		c0.053-1.486,0.395-2.283,0.62-3.137c0.227-0.857,0.619-3.592,1.189-4.847c0.565-1.255,0.386-4.619,0.321-6.213
		c-0.061-1.596-1.552-2.396-2.013-3.251c-0.461-0.856-0.176-1.994,0.623-2.394c0.801-0.399,0.746,0.456,1.377,1.042
		c0.632,0.585,0.745,0.326,2.176-0.072c1.432-0.399,1.489,0.285,3.035,0c1.543-0.285,0.625-0.914,1.712-1.484
		c1.085-0.568,1.374-0.056,2.174-0.456c0.801-0.397,0.629-0.512,0.966-2.451c0.339-1.939-0.118-2.977-0.75-3.83
		c-0.632-0.856-2.132-2.213-3.276-2.384c-1.147-0.172-2.631,0.344-4.233,1.254c-1.6,0.913-1.882,1.883-4.742,2.735
		c-2.55,0.677-2.756,0.473-3.774,0.137c-1.018-0.336-1.898-1.503-3.161-2.872c-1.263-1.368-2.75-0.513-3.954-1.368
		c-1.204-0.856-3.897-2.054-5.385-2.508c-1.484-0.456-3.096-0.628-4.53-1.197c-1.432-0.572-2.291-1.198-3.611-2.11
		c-1.319-0.914-4.585-1.426-6.704-1.996c-2.12-0.57-6.703-1.082-7.217-1.426c-0.518-0.341-1.553-2.223-4.188-2.223
		c-2.632,0-3.14,2.111-2.91,2.795c0.231,0.683-1.028,0.969-0.281,2.224c0.749,1.254,0.92,0.969,1.723,1.482
		c0.804,0.513,2.752,1.423,4.985,1.196c2.232-0.229,1.767-2.166,2.341-1.996c0.574,0.171,6.762,2.568,8.656,3.765
		c1.891,1.195,1.776,0.454,3.724,1.195c1.947,0.741,2.352,2.054,3.556,2.452c1.202,0.399,1.892,0.456,2.981,0.968
		c1.089,0.514,0.863,1.996,0.753,3.08c-0.112,1.084-0.853,2.337-2.565,3.649c-1.713,1.311-3.073,6.1-3.356,7.526
		c-0.282,1.426-1.417,4.275-2.271,5.757s-2.625,2.568-3.308,4.675c-0.68,2.111,0.759,4.62,2.135,5.076
		c1.374,0.456,1.951,1.367,2.642,2.679c0.689,1.311,2.756,3.422,4.191,4.389c1.436,0.97,3.388,3.535,4.02,4.561
		c0.636,1.026-0.621,2.281-1.249,2.737c-0.628,0.456-2.176,0.056-4.232,1.311c-2.059,1.253-3.65,5.187-4.332,6.157
		c-0.685,0.97-2.739,3.021-4.682,4.191c-1.944,1.17-2.461,0.826-3.374,1.226c-0.915,0.4-0.395,2.111,0.352,3.593
		c0.75,1.482-0.044,3.42-0.158,3.99c-0.113,0.57-0.971,1.082,0.005,1.767c0.886,0.622,1.312,1.617,2.32,1.618
		c-7.678,1.444-14.731,4.009-20.602,7.571c-1.814,1.103-3.475,2.278-4.983,3.514l-0.023-0.115L91.68,25.32H172.516z M92.908,124.899
		c8.071-7.736,22.616-12.91,39.189-12.91c16.572,0,31.12,5.174,39.193,12.909c-7.488,26.677-33.111,39.98-39.178,42.798
		C126.044,164.876,100.397,151.562,92.908,124.899 M177.325,20.511H86.872v99.207l0.033,0.405
		c5.95,34.841,40.348,50.719,44.25,52.415l0.958,0.419l0.959-0.419c3.899-1.692,38.266-17.553,44.218-52.415L177.325,20.511z"/>
</g>
</svg>
